<?xml version="1.0" encoding="UTF-8" standalone="no"?>
<!DOCTYPE svg PUBLIC "-//W3C//DTD SVG 1.1//EN"
 "http://www.w3.org/Graphics/SVG/1.1/DTD/svg11.dtd">
<!-- Generated by graphviz version 2.47.0 (20210316.0004)
 -->
<!-- Title: dependencies Pages: 1 -->
<svg width="728pt" height="355pt"
 viewBox="0.00 0.00 728.00 355.00" xmlns="http://www.w3.org/2000/svg" xmlns:xlink="http://www.w3.org/1999/xlink">
<g id="graph0" class="graph" transform="scale(1 1) rotate(0) translate(4 351)">
<title>dependencies</title>
<polygon fill="white" stroke="transparent" points="-4,4 -4,-351 724,-351 724,4 -4,4"/>
<text text-anchor="start" x="339.01" y="-42.4" font-family="Times-12" font-weight="bold" font-size="14.00">Legend</text>
<polygon fill="#ffffb3" stroke="transparent" points="126,-10 126,-30 146,-30 146,-10 126,-10"/>
<text text-anchor="start" x="149.63" y="-15.4" font-family="Times-12" font-size="14.00"> &#160;Declarations</text>
<polygon fill="#8dd3c7" stroke="transparent" points="239,-10 239,-30 259,-30 259,-10 239,-10"/>
<text text-anchor="start" x="262.73" y="-15.4" font-family="Times-12" font-size="14.00"> &#160;Module</text>
<polygon fill="#80b1d3" stroke="transparent" points="325,-10 325,-30 345,-30 345,-10 325,-10"/>
<text text-anchor="start" x="348.78" y="-15.4" font-family="Times-12" font-size="14.00"> &#160;Bootstrap</text>
<polygon fill="#fdb462" stroke="transparent" points="422,-10 422,-30 442,-30 442,-10 422,-10"/>
<text text-anchor="start" x="445.67" y="-15.4" font-family="Times-12" font-size="14.00"> &#160;Providers</text>
<polygon fill="#fb8072" stroke="transparent" points="518,-10 518,-30 538,-30 538,-10 518,-10"/>
<text text-anchor="start" x="541.73" y="-15.4" font-family="Times-12" font-size="14.00"> &#160;Exports</text>
<g id="clust19" class="cluster">
<title>cluster_UsersModule</title>
<polygon fill="none" stroke="black" stroke-dasharray="1,5" points="8,-70 8,-282 164,-282 164,-70 8,-70"/>
</g>
<g id="clust22" class="cluster">
<title>cluster_UsersModule_exports</title>
<polygon fill="none" stroke="black" points="30,-222 30,-274 140,-274 140,-222 30,-222"/>
</g>
<g id="clust24" class="cluster">
<title>cluster_UsersModule_providers</title>
<polygon fill="none" stroke="black" points="16,-78 16,-130 156,-130 156,-78 16,-78"/>
</g>
<g id="clust1" class="cluster">
<title>cluster_AppModule</title>
<polygon fill="none" stroke="black" stroke-dasharray="1,5" points="172,-214 172,-339 537,-339 537,-214 172,-214"/>
</g>
<g id="clust3" class="cluster">
<title>cluster_AppModule_imports</title>
<polygon fill="none" stroke="black" points="318,-222 318,-274 529,-274 529,-222 318,-222"/>
</g>
<g id="clust6" class="cluster">
<title>cluster_AppModule_providers</title>
<polygon fill="none" stroke="black" points="180,-222 180,-274 310,-274 310,-222 180,-222"/>
</g>
<g id="clust13" class="cluster">
<title>cluster_PostsModule</title>
<polygon fill="none" stroke="black" stroke-dasharray="1,5" points="560,-138 560,-206 712,-206 712,-138 560,-138"/>
</g>
<g id="clust18" class="cluster">
<title>cluster_PostsModule_providers</title>
<polygon fill="none" stroke="black" points="568,-146 568,-198 704,-198 704,-146 568,-146"/>
</g>
<g id="clust7" class="cluster">
<title>cluster_AuthModule</title>
<polygon fill="none" stroke="black" stroke-dasharray="1,5" points="288,-138 288,-206 552,-206 552,-138 288,-138"/>
</g>
<g id="clust12" class="cluster">
<title>cluster_AuthModule_providers</title>
<polygon fill="none" stroke="black" points="410,-146 410,-198 544,-198 544,-146 410,-146"/>
</g>
<g id="clust10" class="cluster">
<title>cluster_AuthModule_exports</title>
<polygon fill="none" stroke="black" points="296,-146 296,-198 402,-198 402,-146 296,-146"/>
</g>
<!-- AuthModule -->
<g id="node1" class="node">
<title>AuthModule</title>
<polygon fill="#8dd3c7" stroke="black" points="520.55,-266 517.55,-270 496.55,-270 493.55,-266 433.45,-266 433.45,-230 520.55,-230 520.55,-266"/>
<text text-anchor="middle" x="477" y="-243.8" font-family="Times,serif" font-size="14.00">AuthModule</text>
</g>
<!-- AppModule -->
<g id="node4" class="node">
<title>AppModule</title>
<polygon fill="#8dd3c7" stroke="black" points="349.66,-331 346.66,-335 325.66,-335 322.66,-331 266.34,-331 266.34,-295 349.66,-295 349.66,-331"/>
<text text-anchor="middle" x="308" y="-308.8" font-family="Times,serif" font-size="14.00">AppModule</text>
</g>
<!-- AuthModule&#45;&gt;AppModule -->
<g id="edge1" class="edge">
<title>AuthModule&#45;&gt;AppModule</title>
<path fill="none" stroke="black" d="M477,-266.11C477,-285.34 477,-313 477,-313 477,-313 359.78,-313 359.78,-313"/>
<polygon fill="black" stroke="black" points="359.78,-309.5 349.78,-313 359.78,-316.5 359.78,-309.5"/>
</g>
<!-- AuthService  -->
<g id="node6" class="node">
<title>AuthService </title>
<polygon fill="#fb8072" stroke="black" points="393.98,-190 304.02,-190 304.02,-154 393.98,-154 393.98,-190"/>
<text text-anchor="middle" x="349" y="-167.8" font-family="Times,serif" font-size="14.00">AuthService </text>
</g>
<!-- AuthModule&#45;&gt;AuthService  -->
<g id="edge5" class="edge">
<title>AuthModule&#45;&gt;AuthService </title>
<path fill="none" stroke="black" stroke-dasharray="5,2" d="M462.41,-229.89C462.41,-220.1 462.41,-210 462.41,-210 462.41,-210 371.31,-210 371.31,-210 371.31,-210 371.31,-200.11 371.31,-200.11"/>
<polygon fill="black" stroke="black" points="374.81,-200.11 371.31,-190.11 367.81,-200.11 374.81,-200.11"/>
</g>
<!-- PostsModule -->
<g id="node2" class="node">
<title>PostsModule</title>
<polygon fill="#8dd3c7" stroke="black" points="415.61,-266 412.61,-270 391.61,-270 388.61,-266 326.39,-266 326.39,-230 415.61,-230 415.61,-266"/>
<text text-anchor="middle" x="371" y="-243.8" font-family="Times,serif" font-size="14.00">PostsModule</text>
</g>
<!-- PostsModule&#45;&gt;AppModule -->
<g id="edge2" class="edge">
<title>PostsModule&#45;&gt;AppModule</title>
<path fill="none" stroke="black" d="M338.14,-266.11C338.14,-266.11 338.14,-284.99 338.14,-284.99"/>
<polygon fill="black" stroke="black" points="334.64,-284.99 338.14,-294.99 341.64,-284.99 334.64,-284.99"/>
</g>
<!-- UsersModule -->
<g id="node3" class="node">
<title>UsersModule</title>
<polygon fill="#8dd3c7" stroke="black" points="143.92,-190 140.92,-194 119.92,-194 116.92,-190 52.08,-190 52.08,-154 143.92,-154 143.92,-190"/>
<text text-anchor="middle" x="98" y="-167.8" font-family="Times,serif" font-size="14.00">UsersModule</text>
</g>
<!-- UsersModule&#45;&gt;PostsModule -->
<g id="edge7" class="edge">
<title>UsersModule&#45;&gt;PostsModule</title>
<path fill="none" stroke="black" d="M135.69,-190.15C135.69,-203.74 135.69,-220 135.69,-220 135.69,-220 348.88,-220 348.88,-220 348.88,-220 348.88,-220.98 348.88,-220.98"/>
<polygon fill="black" stroke="black" points="345.38,-219.79 348.88,-229.79 352.38,-219.79 345.38,-219.79"/>
</g>
<!-- UsersModule&#45;&gt;AppModule -->
<g id="edge3" class="edge">
<title>UsersModule&#45;&gt;AppModule</title>
<path fill="none" stroke="black" d="M139.7,-190.14C139.7,-228.23 139.7,-313 139.7,-313 139.7,-313 255.96,-313 255.96,-313"/>
<polygon fill="black" stroke="black" points="255.96,-316.5 265.96,-313 255.96,-309.5 255.96,-316.5"/>
</g>
<!-- UsersService  -->
<g id="node9" class="node">
<title>UsersService </title>
<polygon fill="#fb8072" stroke="black" points="131.85,-266 38.15,-266 38.15,-230 131.85,-230 131.85,-266"/>
<text text-anchor="middle" x="85" y="-243.8" font-family="Times,serif" font-size="14.00">UsersService </text>
</g>
<!-- UsersModule&#45;&gt;UsersService  -->
<g id="edge9" class="edge">
<title>UsersModule&#45;&gt;UsersService </title>
<path fill="none" stroke="black" stroke-dasharray="5,2" d="M91.98,-190.01C91.98,-190.01 91.98,-219.85 91.98,-219.85"/>
<polygon fill="black" stroke="black" points="88.48,-219.85 91.98,-229.85 95.48,-219.85 88.48,-219.85"/>
</g>
<!-- AppService -->
<g id="node5" class="node">
<title>AppService</title>
<ellipse fill="#fdb462" stroke="black" cx="245" cy="-248" rx="56.74" ry="18"/>
<text text-anchor="middle" x="245" y="-243.8" font-family="Times,serif" font-size="14.00">AppService</text>
</g>
<!-- AppService&#45;&gt;AppModule -->
<g id="edge4" class="edge">
<title>AppService&#45;&gt;AppModule</title>
<path fill="none" stroke="black" d="M283.9,-261.15C283.9,-261.15 283.9,-284.69 283.9,-284.69"/>
<polygon fill="black" stroke="black" points="280.4,-284.69 283.9,-294.69 287.4,-284.69 280.4,-284.69"/>
</g>
<!-- AuthService -->
<g id="node7" class="node">
<title>AuthService</title>
<ellipse fill="#fdb462" stroke="black" cx="477" cy="-172" rx="59.11" ry="18"/>
<text text-anchor="middle" x="477" y="-167.8" font-family="Times,serif" font-size="14.00">AuthService</text>
</g>
<!-- AuthService&#45;&gt;AuthModule -->
<g id="edge6" class="edge">
<title>AuthService&#45;&gt;AuthModule</title>
<path fill="none" stroke="black" d="M491.59,-189.63C491.59,-189.63 491.59,-219.94 491.59,-219.94"/>
<polygon fill="black" stroke="black" points="488.09,-219.94 491.59,-229.94 495.09,-219.94 488.09,-219.94"/>
</g>
<!-- PostsService -->
<g id="node8" class="node">
<title>PostsService</title>
<ellipse fill="#fdb462" stroke="black" cx="636" cy="-172" rx="60.27" ry="18"/>
<text text-anchor="middle" x="636" y="-167.8" font-family="Times,serif" font-size="14.00">PostsService</text>
</g>
<!-- PostsService&#45;&gt;PostsModule -->
<g id="edge8" class="edge">
<title>PostsService&#45;&gt;PostsModule</title>
<path fill="none" stroke="black" d="M636,-190.21C636,-195.55 636,-200 636,-200 636,-200 404.65,-200 404.65,-200 404.65,-200 404.65,-219.85 404.65,-219.85"/>
<polygon fill="black" stroke="black" points="401.15,-219.85 404.65,-229.85 408.15,-219.85 401.15,-219.85"/>
</g>
<!-- UsersService -->
<g id="node10" class="node">
<title>UsersService</title>
<ellipse fill="#fdb462" stroke="black" cx="86" cy="-104" rx="61.95" ry="18"/>
<text text-anchor="middle" x="86" y="-99.8" font-family="Times,serif" font-size="14.00">UsersService</text>
</g>
<!-- UsersService&#45;&gt;UsersModule -->
<g id="edge10" class="edge">
<title>UsersService&#45;&gt;UsersModule</title>
<path fill="none" stroke="black" d="M98,-121.87C98,-121.87 98,-143.54 98,-143.54"/>
<polygon fill="black" stroke="black" points="94.5,-143.54 98,-153.54 101.5,-143.54 94.5,-143.54"/>
</g>
</g>
</svg>
